<mxfile host="Electron" modified="2023-10-03T13:16:45.879Z" agent="Mozilla/5.0 (Windows NT 10.0; Win64; x64) AppleWebKit/537.36 (KHTML, like Gecko) draw.io/22.0.0 Chrome/114.0.5735.289 Electron/25.8.3 Safari/537.36" etag="60gYiPoTakqEJygcAKX9" version="22.0.0" type="device">
  <diagram name="Page-1" id="mOb_JflIiaUrf0sioLM7">
    <mxGraphModel dx="1036" dy="606" grid="1" gridSize="10" guides="1" tooltips="1" connect="1" arrows="1" fold="1" page="1" pageScale="1" pageWidth="827" pageHeight="1169" math="0" shadow="0">
      <root>
        <mxCell id="0" />
        <mxCell id="1" parent="0" />
        <mxCell id="sUuGOO-kQRHYuQPBvcdS-7" value="&lt;b&gt;Producer&lt;/b&gt;" style="rounded=0;whiteSpace=wrap;html=1;sketch=1;hachureGap=4;jiggle=2;curveFitting=1;fontFamily=Architects Daughter;fontSource=https%3A%2F%2Ffonts.googleapis.com%2Fcss%3Ffamily%3DArchitects%2BDaughter;fontSize=20;verticalAlign=top;align=right;fillColor=#f5f5f5;fontColor=#333333;strokeColor=#666666;" vertex="1" parent="1">
          <mxGeometry x="90" y="170" width="620" height="330" as="geometry" />
        </mxCell>
        <mxCell id="sUuGOO-kQRHYuQPBvcdS-8" style="edgeStyle=orthogonalEdgeStyle;rounded=0;sketch=1;hachureGap=4;jiggle=2;curveFitting=1;orthogonalLoop=1;jettySize=auto;html=1;exitX=0.5;exitY=1;exitDx=0;exitDy=0;entryX=0;entryY=0.5;entryDx=0;entryDy=0;fontFamily=Architects Daughter;fontSource=https%3A%2F%2Ffonts.googleapis.com%2Fcss%3Ffamily%3DArchitects%2BDaughter;fontSize=16;" edge="1" parent="1" source="sUuGOO-kQRHYuQPBvcdS-1" target="sUuGOO-kQRHYuQPBvcdS-2">
          <mxGeometry relative="1" as="geometry" />
        </mxCell>
        <mxCell id="sUuGOO-kQRHYuQPBvcdS-9" value="&lt;font style=&quot;font-size: 14px;&quot;&gt;total.message &amp;lt; batch.size&lt;/font&gt;" style="edgeLabel;html=1;align=center;verticalAlign=middle;resizable=0;points=[];fontSize=16;fontFamily=Architects Daughter;fontStyle=1" vertex="1" connectable="0" parent="sUuGOO-kQRHYuQPBvcdS-8">
          <mxGeometry x="-0.4924" y="-4" relative="1" as="geometry">
            <mxPoint as="offset" />
          </mxGeometry>
        </mxCell>
        <mxCell id="sUuGOO-kQRHYuQPBvcdS-12" style="edgeStyle=orthogonalEdgeStyle;rounded=0;sketch=1;hachureGap=4;jiggle=2;curveFitting=1;orthogonalLoop=1;jettySize=auto;html=1;exitX=0;exitY=0.5;exitDx=0;exitDy=0;entryX=0.5;entryY=0;entryDx=0;entryDy=0;fontFamily=Architects Daughter;fontSource=https%3A%2F%2Ffonts.googleapis.com%2Fcss%3Ffamily%3DArchitects%2BDaughter;fontSize=16;" edge="1" parent="1" source="sUuGOO-kQRHYuQPBvcdS-1" target="sUuGOO-kQRHYuQPBvcdS-3">
          <mxGeometry relative="1" as="geometry" />
        </mxCell>
        <mxCell id="sUuGOO-kQRHYuQPBvcdS-13" value="total.message &amp;gt; batch.size" style="edgeLabel;html=1;align=center;verticalAlign=middle;resizable=0;points=[];fontSize=14;fontFamily=Architects Daughter;fontStyle=1" vertex="1" connectable="0" parent="sUuGOO-kQRHYuQPBvcdS-12">
          <mxGeometry x="0.24" y="2" relative="1" as="geometry">
            <mxPoint x="-42" y="12" as="offset" />
          </mxGeometry>
        </mxCell>
        <mxCell id="sUuGOO-kQRHYuQPBvcdS-1" value="Message added to batch" style="rounded=1;whiteSpace=wrap;html=1;sketch=1;hachureGap=4;jiggle=2;curveFitting=1;fontFamily=Architects Daughter;fontSource=https%3A%2F%2Ffonts.googleapis.com%2Fcss%3Ffamily%3DArchitects%2BDaughter;fontSize=20;fontStyle=1;fillColor=#dae8fc;strokeColor=#6c8ebf;" vertex="1" parent="1">
          <mxGeometry x="310" y="220" width="150" height="60" as="geometry" />
        </mxCell>
        <mxCell id="sUuGOO-kQRHYuQPBvcdS-10" style="edgeStyle=orthogonalEdgeStyle;rounded=0;sketch=1;hachureGap=4;jiggle=2;curveFitting=1;orthogonalLoop=1;jettySize=auto;html=1;exitX=0.75;exitY=0;exitDx=0;exitDy=0;entryX=1;entryY=0.25;entryDx=0;entryDy=0;fontFamily=Architects Daughter;fontSource=https%3A%2F%2Ffonts.googleapis.com%2Fcss%3Ffamily%3DArchitects%2BDaughter;fontSize=16;" edge="1" parent="1" source="sUuGOO-kQRHYuQPBvcdS-2" target="sUuGOO-kQRHYuQPBvcdS-1">
          <mxGeometry relative="1" as="geometry" />
        </mxCell>
        <mxCell id="sUuGOO-kQRHYuQPBvcdS-11" value="&lt;font style=&quot;font-size: 14px;&quot;&gt;&lt;b&gt;Producere receives &lt;br style=&quot;&quot;&gt;message&lt;/b&gt;&lt;/font&gt;" style="edgeLabel;html=1;align=center;verticalAlign=middle;resizable=0;points=[];fontSize=20;fontFamily=Architects Daughter;" vertex="1" connectable="0" parent="sUuGOO-kQRHYuQPBvcdS-10">
          <mxGeometry x="-0.28" y="3" relative="1" as="geometry">
            <mxPoint x="8" y="17" as="offset" />
          </mxGeometry>
        </mxCell>
        <mxCell id="sUuGOO-kQRHYuQPBvcdS-2" value="Producer waits" style="rounded=1;whiteSpace=wrap;html=1;sketch=1;hachureGap=4;jiggle=2;curveFitting=1;fontFamily=Architects Daughter;fontSource=https%3A%2F%2Ffonts.googleapis.com%2Fcss%3Ffamily%3DArchitects%2BDaughter;fontSize=20;fontStyle=1;fillColor=#dae8fc;strokeColor=#6c8ebf;" vertex="1" parent="1">
          <mxGeometry x="490" y="370" width="140" height="60" as="geometry" />
        </mxCell>
        <mxCell id="sUuGOO-kQRHYuQPBvcdS-14" style="edgeStyle=orthogonalEdgeStyle;rounded=0;sketch=1;hachureGap=4;jiggle=2;curveFitting=1;orthogonalLoop=1;jettySize=auto;html=1;exitX=0.5;exitY=1;exitDx=0;exitDy=0;entryX=0.5;entryY=1;entryDx=0;entryDy=0;fontFamily=Architects Daughter;fontSource=https%3A%2F%2Ffonts.googleapis.com%2Fcss%3Ffamily%3DArchitects%2BDaughter;fontSize=16;endArrow=none;endFill=0;startArrow=classic;startFill=1;" edge="1" parent="1" source="sUuGOO-kQRHYuQPBvcdS-3" target="sUuGOO-kQRHYuQPBvcdS-2">
          <mxGeometry relative="1" as="geometry" />
        </mxCell>
        <mxCell id="sUuGOO-kQRHYuQPBvcdS-15" value="&lt;font style=&quot;font-size: 14px;&quot;&gt;&lt;b&gt;time waited &amp;gt;= linger.ms&lt;/b&gt;&lt;/font&gt;" style="edgeLabel;html=1;align=center;verticalAlign=middle;resizable=0;points=[];fontSize=20;fontFamily=Architects Daughter;" vertex="1" connectable="0" parent="sUuGOO-kQRHYuQPBvcdS-14">
          <mxGeometry x="0.1422" y="-2" relative="1" as="geometry">
            <mxPoint x="-26" y="18" as="offset" />
          </mxGeometry>
        </mxCell>
        <mxCell id="sUuGOO-kQRHYuQPBvcdS-3" value="Send batch" style="rounded=1;whiteSpace=wrap;html=1;sketch=1;hachureGap=4;jiggle=2;curveFitting=1;fontFamily=Architects Daughter;fontSource=https%3A%2F%2Ffonts.googleapis.com%2Fcss%3Ffamily%3DArchitects%2BDaughter;fontSize=20;fontStyle=1;fillColor=#dae8fc;strokeColor=#6c8ebf;" vertex="1" parent="1">
          <mxGeometry x="170" y="370" width="140" height="60" as="geometry" />
        </mxCell>
        <mxCell id="sUuGOO-kQRHYuQPBvcdS-5" style="edgeStyle=orthogonalEdgeStyle;rounded=0;sketch=1;hachureGap=4;jiggle=2;curveFitting=1;orthogonalLoop=1;jettySize=auto;html=1;exitX=0.5;exitY=1;exitDx=0;exitDy=0;entryX=0.5;entryY=0;entryDx=0;entryDy=0;fontFamily=Architects Daughter;fontSource=https%3A%2F%2Ffonts.googleapis.com%2Fcss%3Ffamily%3DArchitects%2BDaughter;fontSize=16;" edge="1" parent="1" source="sUuGOO-kQRHYuQPBvcdS-4" target="sUuGOO-kQRHYuQPBvcdS-1">
          <mxGeometry relative="1" as="geometry" />
        </mxCell>
        <mxCell id="sUuGOO-kQRHYuQPBvcdS-6" value="&lt;font style=&quot;font-size: 14px;&quot;&gt;Producer receives message&lt;/font&gt;" style="edgeLabel;html=1;align=center;verticalAlign=middle;resizable=0;points=[];fontSize=20;fontFamily=Architects Daughter;fontStyle=1" vertex="1" connectable="0" parent="sUuGOO-kQRHYuQPBvcdS-5">
          <mxGeometry x="-0.0057" y="1" relative="1" as="geometry">
            <mxPoint x="34" y="15" as="offset" />
          </mxGeometry>
        </mxCell>
        <mxCell id="sUuGOO-kQRHYuQPBvcdS-4" value="Client" style="rounded=0;whiteSpace=wrap;html=1;sketch=1;hachureGap=4;jiggle=2;curveFitting=1;fontFamily=Architects Daughter;fontSource=https%3A%2F%2Ffonts.googleapis.com%2Fcss%3Ffamily%3DArchitects%2BDaughter;fontSize=20;fontStyle=1;fillColor=#f8cecc;strokeColor=#b85450;" vertex="1" parent="1">
          <mxGeometry x="325" y="70" width="120" height="60" as="geometry" />
        </mxCell>
      </root>
    </mxGraphModel>
  </diagram>
</mxfile>
